<?xml version="1.0" encoding="UTF-8"?>
<svg width="800" height="600" viewBox="0 0 800 600" xmlns="http://www.w3.org/2000/svg">
    <!-- Background shapes -->
    <rect x="50" y="50" width="700" height="500" rx="20" fill="#f8f9fa" stroke="#dee2e6" stroke-width="2"/>
    
    <!-- Task list -->
    <rect x="100" y="100" width="600" height="400" rx="10" fill="white" stroke="#dee2e6" stroke-width="1"/>
    
    <!-- Task items -->
    <g transform="translate(120, 150)">
        <!-- Task 1 -->
        <rect x="0" y="0" width="20" height="20" rx="4" fill="#6B73FF"/>
        <text x="30" y="15" font-family="Arial" font-size="16">Complete project proposal</text>
        
        <!-- Task 2 -->
        <rect x="0" y="40" width="20" height="20" rx="4" fill="#6B73FF"/>
        <text x="30" y="55" font-family="Arial" font-size="16">Schedule team meeting</text>
        
        <!-- Task 3 -->
        <rect x="0" y="80" width="20" height="20" rx="4" fill="#6B73FF"/>
        <text x="30" y="95" font-family="Arial" font-size="16">Review documentation</text>
        
        <!-- Task 4 -->
        <rect x="0" y="120" width="20" height="20" rx="4" fill="#6B73FF"/>
        <text x="30" y="135" font-family="Arial" font-size="16">Update project timeline</text>
    </g>
    
    <!-- Calendar icon -->
    <g transform="translate(500, 200)">
        <rect x="0" y="0" width="100" height="100" rx="10" fill="#000DFF" opacity="0.1"/>
        <text x="50" y="60" font-family="Arial" font-size="60" text-anchor="middle" fill="#000DFF">📅</text>
    </g>
    
    <!-- Progress chart -->
    <g transform="translate(500, 350)">
        <rect x="0" y="0" width="100" height="100" rx="10" fill="#6B73FF" opacity="0.1"/>
        <text x="50" y="60" font-family="Arial" font-size="60" text-anchor="middle" fill="#6B73FF">📈</text>
    </g>
</svg> 